<?xml version="1.0" encoding="UTF-8"?>
<svg width="103px" height="80px" viewBox="0 0 103 80" version="1.1" xmlns="http://www.w3.org/2000/svg" xmlns:xlink="http://www.w3.org/1999/xlink">
    <!-- Generator: Sketch 52.6 (67491) - http://www.bohemiancoding.com/sketch -->
    <title>stack</title>
    <desc>Created with Sketch.</desc>
    <g id="Login" stroke="none" stroke-width="1" fill="none" fill-rule="evenodd">
        <g id="login-002b" transform="translate(-669.000000, -232.000000)">
            <g id="login-card" transform="translate(476.000000, 160.000000)">
                <g id="stack" transform="translate(193.000000, 72.000000)">
                    <path d="M45.2995893,29.1376696 L2.14601763,50.3641456 C-0.71533921,51.7706207 -0.71533921,55.9212777 2.14601763,57.3310274 L45.2995893,78.5558661 C49.2176698,80.481378 53.7823302,80.481378 57.7004107,78.5558661 L100.853982,57.3310274 C103.715339,55.9212777 103.715339,51.7706207 100.853982,50.3641456 L57.7004107,29.1376696 C53.7823302,27.2105204 49.2176698,27.2105204 45.2995893,29.1376696" id="bottom" fill="#2E2E60"></path>
                    <path d="M46.4101106,15.0364519 L10.9855369,32.5170792 C8.63666184,33.6753528 8.63666184,37.0935409 10.9855369,38.2545113 L46.4101106,55.7337902 C49.6264454,57.3195058 53.3735546,57.3195058 56.5898894,55.7337902 L92.0144631,38.2545113 C94.3633382,37.0935409 94.3633382,33.6753528 92.0144631,32.5170792 L56.5898894,15.0364519 C53.3735546,13.4493878 49.6264454,13.4493878 46.4101106,15.0364519" id="mid" fill="#187CF5"></path>
                    <path d="M47.5206319,0.935234173 L19.8250561,14.6700128 C17.9886629,15.5800849 17.9886629,18.2658041 19.8250561,19.1779951 L47.5206319,32.9117143 C50.0352209,34.1576337 52.9647791,34.1576337 55.4793681,32.9117143 L83.1749439,19.1779951 C85.0113371,18.2658041 85.0113371,15.5800849 83.1749439,14.6700128 L55.4793681,0.935234173 C52.9647791,-0.311744724 50.0352209,-0.311744724 47.5206319,0.935234173" id="top" fill="#80E5E3"></path>
                </g>
            </g>
        </g>
    </g>
</svg>